<?xml version="1.0" encoding="UTF-8" standalone="no"?>
<!-- Generator: Adobe Illustrator 14.0.0, SVG Export Plug-In . SVG Version: 6.00 Build 43363)  -->

<svg
   xmlns:dc="http://purl.org/dc/elements/1.1/"
   xmlns:cc="http://creativecommons.org/ns#"
   xmlns:rdf="http://www.w3.org/1999/02/22-rdf-syntax-ns#"
   xmlns:svg="http://www.w3.org/2000/svg"
   xmlns="http://www.w3.org/2000/svg"
   xmlns:sodipodi="http://sodipodi.sourceforge.net/DTD/sodipodi-0.dtd"
   xmlns:inkscape="http://www.inkscape.org/namespaces/inkscape"
   version="1.1"
   id="Layer_1"
   x="0px"
   y="0px"
   width="830"
   height="180"
   viewBox="0 0 830 180"
   enable-background="new 0 0 595.276 765.354"
   xml:space="preserve">
<rect
   style="fill:none"
   id="rect5"
   height="179.99907"
   width="830"
   clip-rule="evenodd"
   y="0.0009298175"
   x="-4.1958497e-06" /><path
   style="fill:#1a171b"
   id="path7"
   d="m 452.33768,114.35643 c 6.94323,0 10.3711,-2.43286 10.3711,-7.43526 0,-5.2703 -3.35133,-7.615685 -10.95608,-7.615685 h -11.69415 v 15.050945 h 12.27913 z m -0.49751,-23.9842 c 5.93182,0 9.36516,-2.339923 9.36516,-6.270774 0,-4.504897 -3.09985,-6.604267 -9.53464,-6.604267 H 440.06402 V 90.37223 h 11.77615 z m 1.67841,-22.316737 c 12.19165,0 19.12941,5.188286 19.12941,14.209015 0,4.936799 -2.33446,8.605229 -7.76876,11.453592 6.94322,2.585942 9.86813,6.93776 9.86813,14.12701 0,9.76972 -7.68676,15.95849 -19.89481,15.95849 H 428.35894 V 68.055493 h 25.15964 z m -56.17454,46.300937 c 6.93776,0 10.36563,-2.43286 10.36563,-7.43526 0,-5.2703 -3.35133,-7.615685 -10.95608,-7.615685 h -11.44266 v 15.050945 h 12.03311 z m -0.50298,-23.9842 c 5.94275,0 9.37609,-2.339923 9.37609,-6.270774 0,-4.504897 -3.09985,-6.604267 -9.53463,-6.604267 H 385.32187 V 90.37223 h 11.51919 z m 1.68387,-22.316737 c 12.18619,0 19.12941,5.188286 19.12941,14.209015 0,4.936799 -2.33445,8.605229 -7.77422,11.453592 6.93776,2.585942 9.86813,6.93776 9.86813,14.12701 0,9.76972 -7.69222,15.95849 -19.88934,15.95849 H 373.60585 V 68.055493 h 24.91908 z m -46.6399,16.54347 c -0.66699,-5.685792 -4.01832,-8.271735 -10.7866,-8.271735 -5.77874,0 -9.35969,2.503936 -9.35969,6.522261 0,3.34587 2.25244,5.352299 6.85575,6.183299 l 10.02121,1.754942 c 10.7046,1.836948 16.4724,7.522741 16.4724,16.22091 0,10.94515 -8.86765,17.96492 -22.90172,17.96492 -14.88147,0 -23.39922,-7.18925 -23.64524,-19.8128 h 11.86909 c 0.74899,7.27125 4.34088,10.3711 12.27912,10.3711 6.1013,0 10.45312,-3.18185 10.45312,-7.60475 0,-3.51535 -2.34539,-5.68579 -6.85576,-6.52226 l -9.11367,-1.667464 c -11.6176,-2.181376 -16.9699,-7.200181 -16.9699,-16.138904 0,-10.19069 8.18973,-16.707483 21.56227,-16.707483 13.1156,0 21.22878,6.5988 21.55681,17.707964 h -11.43719 z" /><path
   style="fill:#1a171b"
   id="path9"
   d="m 616.91951,78.08217 v 13.12106 h 25.05029 v 9.70412 H 616.91951 V 123.8036 H 605.20897 V 68.055493 h 39.19916 V 78.08217 h -27.48862 z m -48.99076,0 v 13.12106 h 24.73867 v 9.70412 H 567.92875 V 123.8036 H 556.21821 V 68.055493 h 38.86567 V 78.08217 h -27.15513 z m -19.88934,26.07811 c -0.831,12.78756 -10.19615,20.81328 -24.23569,20.81328 -15.71794,0 -26.08357,-11.44813 -26.08357,-28.915538 0,-17.390871 10.62259,-29.167023 26.32959,-29.167023 13.45455,0 22.48075,7.435268 23.48123,19.222353 h -11.61214 c -1.34491,-6.35278 -5.26482,-9.45263 -11.78708,-9.45263 -8.85672,0 -14.62452,7.522741 -14.62452,19.309827 0,11.623071 5.6858,19.309831 14.37303,19.309831 7.18925,0 11.19664,-3.51536 12.45954,-11.1201 h 11.69961 z" /><path
   style="fill:#1a171b"
   id="path11"
   d="m 799.69588,84.598963 c -0.66699,-5.685792 -4.00192,-8.271735 -10.78114,-8.271735 -5.7678,0 -9.34875,2.503936 -9.34875,6.522261 0,3.34587 2.24698,5.352299 6.84482,6.183299 l 10.03214,1.754942 c 10.7046,1.836948 16.46146,7.522741 16.46146,16.22091 0,10.94515 -8.86765,17.96492 -22.90718,17.96492 -14.876,0 -23.38282,-7.18925 -23.63431,-19.8128 h 11.85269 c 0.74899,7.27125 4.35729,10.3711 12.29006,10.3711 6.10129,0 10.44764,-3.18185 10.44764,-7.60475 0,-3.51535 -2.33992,-5.68579 -6.84482,-6.52226 l -9.11913,-1.667464 c -11.62307,-2.181376 -16.95897,-7.200181 -16.95897,-16.138904 0,-10.19069 8.17332,-16.707483 21.54587,-16.707483 13.12106,0 21.24518,6.5988 21.56774,17.707964 H 799.69588 z M 732.24816,78.08217 v 13.12106 h 24.90815 v 9.70412 H 732.24816 V 123.8036 H 720.54308 V 68.055493 h 39.03516 V 78.08217 h -27.33008 z m -49.57027,0 v 13.12106 h 25.07763 v 9.70412 H 682.67789 V 123.8036 H 670.99468 V 68.055493 h 39.1773 V 78.08217 h -27.49409 z" /><rect
   style="fill:#e2001a"
   id="rect13"
   height="79.655769"
   width="238.86891"
   y="54.764957"
   x="53.916615" /><polygon
   style="fill:#ffffff"
   id="polygon15"
   points="460.837,23.306 460.837,27.051 456.113,27.051 459.919,23.306 457.091,23.306 452.245,28.167 457.091,33.014 459.919,33.014 456.113,29.284 460.837,29.284 460.837,33.014 463.069,33.014 463.069,29.284 467.793,29.284 463.986,33.014 466.815,33.014 471.66,28.167 466.815,23.306 463.986,23.306 467.793,27.051 463.069,27.051 463.069,23.306 "
   transform="matrix(5.4671084,0,0,5.4671084,-2299.1213,-59.355468)" />
</svg>